<?xml version="1.0" encoding="UTF-8"?>
<svg version="1.1" xmlns="http://www.w3.org/2000/svg" width="200" height="200">
<path d="M0 0 C66 0 132 0 200 0 C200 66 200 132 200 200 C134 200 68 200 0 200 C0 134 0 68 0 0 Z " fill="#FEFEF9" transform="translate(0,0)"/>
<path d="M0 0 C1.71533936 0.00241699 1.71533936 0.00241699 3.46533203 0.00488281 C12.70178723 0.13796918 20.62388071 1.43811643 29.375 4.375 C30.57382813 4.7565625 31.77265625 5.138125 33.0078125 5.53125 C35.81193351 6.44210137 38.59766045 7.3860988 41.375 8.375 C41.375 9.035 41.375 9.695 41.375 10.375 C42.40367187 10.62507812 43.43234375 10.87515625 44.4921875 11.1328125 C56.84222041 14.68709118 71.14968921 28.00598427 78.375 38.375 C78.28372188 42.84762803 76.97297687 44.91535 74.375 48.375 C68.90969968 58.60234508 68.61337369 71.05700631 67.375 82.375 C64.26762132 79.43844146 62.28023578 76.06850835 60.1875 72.375 C59.81947266 71.7459375 59.45144531 71.116875 59.07226562 70.46875 C56.375 65.744782 56.375 65.744782 56.375 62.375 C55.385 62.045 54.395 61.715 53.375 61.375 C52.59130859 59.28955078 52.59130859 59.28955078 52.0234375 56.5703125 C51.81203125 55.59449219 51.600625 54.61867187 51.3828125 53.61328125 C51.06957031 52.07220703 51.06957031 52.07220703 50.75 50.5 C50.32130474 48.48155984 49.89165875 46.4633213 49.4609375 44.4453125 C49.2757959 43.54570801 49.0906543 42.64610352 48.89990234 41.71923828 C48.3864513 39.2405236 48.3864513 39.2405236 47.375 36.375 C47.24718214 33.70105036 47.33108129 31.05404143 47.375 28.375 C39.39480731 35.67117617 33.97903049 45.17406768 33.17529297 56.08642578 C32.74918237 67.08150563 33.072096 77.59322218 35.375 88.375 C27.19450957 84.5433304 21.35868581 76.70394972 16.375 69.375 C15.67375 68.67375 14.9725 67.9725 14.25 67.25 C10.82658512 63.82658512 9.03592661 59.7834261 7.203125 55.34765625 C5.92250167 52.29711483 4.52595107 49.29897966 3.14453125 46.29296875 C2.375 44.375 2.375 44.375 2.375 42.375 C-2.48658249 46.83973595 -3.73706555 52.39458344 -4.12890625 58.7734375 C-4.17344142 60.76522291 -4.19196485 62.75772176 -4.1875 64.75 C-4.1865332 65.79913574 -4.18556641 66.84827148 -4.18457031 67.92919922 C-3.91282078 80.17095728 -0.78276054 91.38525595 6.375 101.375 C6.045 102.035 5.715 102.695 5.375 103.375 C-4.19359129 98.91124029 -12.65926294 94.42862976 -20.625 87.375 C-21.74797035 86.47662372 -22.87268713 85.58042108 -24 84.6875 C-26.58694825 82.40852178 -28.6784181 80.22000432 -30.625 77.375 C-30.625 76.385 -30.625 75.395 -30.625 74.375 C-31.8315625 73.9728125 -31.8315625 73.9728125 -33.0625 73.5625 C-33.908125 73.170625 -34.75375 72.77875 -35.625 72.375 C-35.955 71.385 -36.285 70.395 -36.625 69.375 C-37.615 69.375 -38.605 69.375 -39.625 69.375 C-40.18397606 81.13834068 -40.05836603 90.61450694 -34.625 101.375 C-34.28726563 102.13425781 -33.94953125 102.89351563 -33.6015625 103.67578125 C-30.29348299 110.47848612 -25.05250228 115.91737478 -20.07421875 121.53125 C-17.625 124.375 -17.625 124.375 -17.625 125.375 C-24.28798064 125.75375412 -29.47882087 124.49997368 -35.75 122.3125 C-36.67143799 121.99667969 -37.59287598 121.68085937 -38.54223633 121.35546875 C-50.22964542 117.2431 -60.72003853 111.88359983 -70.625 104.375 C-67.84039277 121.26584124 -61.22122263 133.73062062 -47.48828125 144.39453125 C-43.06858907 147.45153525 -38.44049478 149.99985267 -33.625 152.375 C-33.625 153.035 -33.625 153.695 -33.625 154.375 C-45.58906067 156.29863328 -57.45314987 155.9426597 -69.375 153.875 C-70.20797607 153.75165283 -71.04095215 153.62830566 -71.89916992 153.5012207 C-76.65941953 152.56817106 -79.10037386 151.34323061 -82.07421875 147.4375 C-82.95652826 146.10399332 -83.80922054 144.75021417 -84.625 143.375 C-84.99866699 142.7547998 -85.37233398 142.13459961 -85.75732422 141.49560547 C-96.62420678 122.56270089 -99.26691091 94.45774064 -93.875 73.5625 C-93.16809367 71.15359967 -92.42302475 68.7552676 -91.625 66.375 C-91.32464844 65.47007813 -91.02429688 64.56515625 -90.71484375 63.6328125 C-86.5337844 52.30232267 -80.40629068 40.72793504 -71.625 32.375 C-70.8 31.55 -69.975 30.725 -69.125 29.875 C-68.3 29.05 -67.475 28.225 -66.625 27.375 C-65.87347656 26.59640625 -65.12195313 25.8178125 -64.34765625 25.015625 C-61.55556166 22.30765378 -58.66795208 19.96488551 -55.5625 17.625 C-54.54027344 16.84640625 -53.51804688 16.0678125 -52.46484375 15.265625 C-49.92680158 13.5759243 -48.48341435 13.03888978 -45.625 12.375 C-45.1815625 11.90747314 -44.738125 11.43994629 -44.28125 10.95825195 C-42.36221396 9.12379607 -40.80630816 8.49310514 -38.30859375 7.62109375 C-37.03725586 7.17540039 -37.03725586 7.17540039 -35.74023438 6.72070312 C-34.85658203 6.42099609 -33.97292969 6.12128906 -33.0625 5.8125 C-31.77762695 5.35713867 -31.77762695 5.35713867 -30.46679688 4.89257812 C-20.26147848 1.3679422 -10.79686096 -0.01591284 0 0 Z " fill="#FAD918" transform="translate(98.625,2.625)"/>
<path d="M0 0 C1.05123047 0.00193359 2.10246094 0.00386719 3.18554688 0.00585938 C10.21036567 0.04505551 17.1459943 0.26792912 24.125 1.125 C25.38697843 15.70786181 19.42825444 29.83150886 14.125 43.125 C13.465 43.125 12.805 43.125 12.125 43.125 C12.02832031 43.67285156 11.93164062 44.22070312 11.83203125 44.78515625 C10.93780759 47.74449311 9.49216314 49.96927275 7.8125 52.5625 C7.21824219 53.48933594 6.62398438 54.41617188 6.01171875 55.37109375 C-2.09007353 67.19669118 -2.09007353 67.19669118 -7.875 69.125 C-7.875 69.785 -7.875 70.445 -7.875 71.125 C-10.0495148 72.86163305 -12.22120695 74.473764 -14.5 76.0625 C-15.42619141 76.72668945 -15.42619141 76.72668945 -16.37109375 77.40429688 C-25.88624721 84.125 -25.88624721 84.125 -29.875 84.125 C-29.875 84.785 -29.875 85.445 -29.875 86.125 C-55.44106782 95.585976 -79.42331028 98.75775516 -105.875 90.125 C-105.34534483 83.57950839 -104.08751839 77.87975921 -101.9375 71.6875 C-101.67259766 70.88634766 -101.40769531 70.08519531 -101.13476562 69.25976562 C-99.142897 63.392897 -99.142897 63.392897 -96.875 61.125 C-96.2324765 59.05625966 -96.2324765 59.05625966 -95.875 57.125 C-95.215 57.125 -94.555 57.125 -93.875 57.125 C-93.441875 55.2996875 -93.441875 55.2996875 -93 53.4375 C-86.36646052 33.50544299 -65.31250357 20.43717468 -47.875 11.125 C-46.74707031 10.51914063 -45.61914062 9.91328125 -44.45703125 9.2890625 C-38.94207641 6.42324313 -33.95428564 4.38278324 -27.875 3.125 C-26.92625 2.774375 -25.9775 2.42375 -25 2.0625 C-16.96704959 -0.34738512 -8.31580835 -0.03705325 0 0 Z " fill="#FAD918" transform="translate(171.875,100.875)"/>
<path d="M0 0 C1 2 1 2 0.45239258 3.74658203 C0.16517334 4.45153809 -0.1220459 5.15649414 -0.41796875 5.8828125 C-2.41354406 11.5704864 -2.40693547 16.89912336 -2.3125 22.875 C-2.31572266 23.88691406 -2.31894531 24.89882812 -2.32226562 25.94140625 C-2.27386527 32.81425617 -1.44656613 39.2846873 0 46 C-3.74020498 44.31847927 -5.56134348 42.30960527 -8 39 C-6.68 39.33 -5.36 39.66 -4 40 C-4.15855469 38.90558594 -4.31710938 37.81117187 -4.48046875 36.68359375 C-5.12531012 31.47790273 -5.25869021 26.30357322 -5.3125 21.0625 C-5.34150391 20.12470703 -5.37050781 19.18691406 -5.40039062 18.22070312 C-5.4596965 11.65599937 -4.27736481 6.71687576 -1 1 C-0.67 0.67 -0.34 0.34 0 0 Z " fill="#F3DA3F" transform="translate(134,45)"/>
<path d="M0 0 C1.54193858 3.08387715 0.46436244 5.43031574 -0.25 8.75 C-0.50265625 9.96171875 -0.7553125 11.1734375 -1.015625 12.421875 C-2 16 -2 16 -3.52954102 18.70849609 C-5.27539791 22.61645601 -5.47517044 26.04042839 -5.51171875 30.2421875 C-5.53864555 31.39474533 -5.53864555 31.39474533 -5.56611633 32.57058716 C-5.61994958 35.00533695 -5.65402692 37.4398938 -5.6875 39.875 C-5.72069705 41.53388086 -5.75518891 43.19273635 -5.79101562 44.8515625 C-5.87565991 48.90090182 -5.94259857 52.95018661 -6 57 C-6.33 57 -6.66 57 -7 57 C-9.89288577 37.05555177 -8.34405956 18.46345094 0 0 Z " fill="#F4DB4F" transform="translate(11,59)"/>
<path d="M0 0 C6.41753653 0.60542797 6.41753653 0.60542797 8.9375 2.3125 C10 4 10 4 10 8 C6.46173745 9.17942085 3.65851274 9.11289189 -0.07421875 9.09765625 C-1.09996758 9.09553383 -1.09996758 9.09553383 -2.1464386 9.09336853 C-4.32683722 9.08777876 -6.50713251 9.07522822 -8.6875 9.0625 C-10.16731622 9.05748367 -11.64713406 9.052921 -13.12695312 9.04882812 C-16.75133557 9.03781271 -20.3756577 9.02055512 -24 9 C-24 8.34 -24 7.68 -24 7 C-30.93 6.505 -30.93 6.505 -38 6 C-37.67 4.68 -37.34 3.36 -37 2 C-35.7625 2.45375 -34.525 2.9075 -33.25 3.375 C-23.21037539 6.68776433 -13.25531958 7.28623867 -2.75 7.125 C-1.61175781 7.11597656 -0.47351562 7.10695312 0.69921875 7.09765625 C3.46637881 7.0744028 6.2330676 7.04172868 9 7 C7.71502463 4.43004926 6.50087627 4.09565537 3.9375 2.875 C3.20402344 2.52179688 2.47054687 2.16859375 1.71484375 1.8046875 C1.14894531 1.53914062 0.58304688 1.27359375 0 1 C0 0.67 0 0.34 0 0 Z " fill="#FEFCD6" transform="translate(56,150)"/>
<path d="M0 0 C3 0 3 0 5.0625 1.9375 C5.701875 2.618125 6.34125 3.29875 7 4 C7.66 4.33 8.32 4.66 9 5 C10.88141079 7.90050829 12.50094109 10.88656995 14 14 C13.34 14 12.68 14 12 14 C12 13.34 12 12.68 12 12 C10.68 11.67 9.36 11.34 8 11 C7.67 9.35 7.34 7.7 7 6 C6.01 6 5.02 6 4 6 C3.01 5.01 2.02 4.02 1 3 C0.67 7.95 0.34 12.9 0 18 C0.66 18 1.32 18 2 18 C3.43023178 22.67209049 4.40380045 27.13103697 5 32 C-1.37339644 25.01961342 -1.312256 16.27692786 -1.203125 7.35546875 C-1.04306171 4.71134627 -0.7840941 2.51036578 0 0 Z " fill="#FEF8BE" transform="translate(59,72)"/>
<path d="M0 0 C1.27294922 0.00064453 2.54589844 0.00128906 3.85742188 0.00195312 C4.84802612 0.01440063 4.84802612 0.01440063 5.85864258 0.02709961 C7.86906162 0.05066585 9.87814994 0.04765913 11.88867188 0.04101562 C22.64125389 0.10084284 22.64125389 0.10084284 27.44140625 2.36328125 C27.44140625 2.69328125 27.44140625 3.02328125 27.44140625 3.36328125 C14.90140625 3.36328125 2.36140625 3.36328125 -10.55859375 3.36328125 C-6.18287439 0.08149173 -5.21464512 -0.01337552 0 0 Z " fill="#FEF9BE" transform="translate(164.55859375,98.63671875)"/>
<path d="M0 0 C-0.56209445 3.43913052 -1.52887772 4.80201056 -4.25 6.9375 C-6.56275253 8.80567434 -8.5969629 10.61084576 -10.6875 12.75 C-13 15 -13 15 -15.1875 16.0625 C-17.53801104 17.27828157 -17.87248269 18.66979756 -19 21 C-19.99 21.33 -20.98 21.66 -22 22 C-19.04857906 15.58877939 -7.4588769 0 0 0 Z " fill="#F6E053" transform="translate(108,122)"/>
<path d="M0 0 C0.33 0 0.66 0 1 0 C1.00257812 1.16273437 1.00515625 2.32546875 1.0078125 3.5234375 C1.16879253 12.36431168 1.95782621 20.40345166 4.8125 28.8125 C5.06080566 29.54581543 5.30911133 30.27913086 5.56494141 31.03466797 C7.18710412 35.49638986 9.21745516 39.1551387 12 43 C11.67 43.66 11.34 44.32 11 45 C9.68 44.34 8.36 43.68 7 43 C7.33 41.68 7.66 40.36 8 39 C7.34 39 6.68 39 6 39 C5.32320342 37.274773 4.65898 35.54461061 4 33.8125 C3.443125 32.36810547 3.443125 32.36810547 2.875 30.89453125 C2.02363228 28.07817642 1.82927353 25.91835561 2 23 C1.34 23 0.68 23 0 23 C0 15.41 0 7.82 0 0 Z " fill="#F6E15A" transform="translate(93,61)"/>
<path d="M0 0 C1.04308801 2.71202882 1.06064457 3.83235033 0.0546875 6.61328125 C-1.41785143 11.34176737 -1.42108132 15.89087053 -1.56640625 20.81054688 C-1.73623576 24.95660197 -2.134989 28.20229614 -4 32 C-4.99 32 -5.98 32 -7 32 C-6.731875 30.72125 -6.46375 29.4425 -6.1875 28.125 C-5.46997082 24.58315382 -4.83545403 21.03739244 -4.26953125 17.46875 C-4.07870972 16.27354736 -4.07870972 16.27354736 -3.8840332 15.05419922 C-3.63082662 13.45254285 -3.3831379 11.85000303 -3.14135742 10.24658203 C-2.54852021 6.50949701 -2.0304614 3.27324381 0 0 Z " fill="#FEFCD9" transform="translate(171,54)"/>
<path d="M0 0 C2 0 2 0 4.0625 1.8125 C6 4 6 4 7 7 C7.66 7.33 8.32 7.66 9 8 C9.12375 7.195625 9.2475 6.39125 9.375 5.5625 C9.58125 4.716875 9.7875 3.87125 10 3 C10.66 2.67 11.32 2.34 12 2 C13.60725635 5.21451269 13.05748185 8.43612536 13 12 C6.79231474 10.78874434 3.51583821 6.99290633 0 2 C0 1.34 0 0.68 0 0 Z " fill="#FAD71C" transform="translate(117,73)"/>
<path d="M0 0 C2 3 2 3 2 7 C2.66 7 3.32 7 4 7 C4 7.99 4 8.98 4 10 C-0.08258878 9.39655166 -3.1471303 8.05381582 -6.75 6.0625 C-7.71421875 5.53785156 -8.6784375 5.01320313 -9.671875 4.47265625 C-12 3 -12 3 -13 1 C-8.89100419 2.12795963 -4.92438786 3.33510818 -1 5 C-0.67 3.35 -0.34 1.7 0 0 Z " fill="#F6D932" transform="translate(97,93)"/>
<path d="M0 0 C0.33 0.66 0.66 1.32 1 2 C-0.90718514 5.81437028 -3.39850752 8.72271413 -6.375 11.75 C-7.12523437 12.52859375 -7.87546875 13.3071875 -8.6484375 14.109375 C-11.18457162 16.14839313 -12.80227089 16.66101812 -16 17 C-14.625 15 -14.625 15 -13 13 C-12.34 13 -11.68 13 -11 13 C-11 12.34 -11 11.68 -11 11 C-6.69767442 6.23255814 -6.69767442 6.23255814 -3 5 C-1.8499169 3.03327085 -1.8499169 3.03327085 -1 1 C-0.67 0.67 -0.34 0.34 0 0 Z " fill="#FEFAD5" transform="translate(175,159)"/>
<path d="M0 0 C0.66 0 1.32 0 2 0 C1.34 6.27 0.68 12.54 0 19 C-2.57644287 16.42355713 -3.68769359 14.96726521 -5.1875 11.8125 C-5.53167969 11.09707031 -5.87585938 10.38164063 -6.23046875 9.64453125 C-6.48441406 9.10183594 -6.73835937 8.55914062 -7 8 C-6.34 8 -5.68 8 -5 8 C-5 8.66 -5 9.32 -5 10 C-4.34 10 -3.68 10 -3 10 C-2.67 10.99 -2.34 11.98 -2 13 C-1.93941406 12.14535156 -1.87882813 11.29070312 -1.81640625 10.41015625 C-1.73261719 9.30542969 -1.64882812 8.20070313 -1.5625 7.0625 C-1.48128906 5.96035156 -1.40007812 4.85820313 -1.31640625 3.72265625 C-1 1 -1 1 0 0 Z " fill="#F3DB4B" transform="translate(166,66)"/>
<path d="M0 0 C0.66 0 1.32 0 2 0 C2.47952665 2.70827004 2.95863231 5.41661344 3.4375 8.125 C3.57220703 8.88554688 3.70691406 9.64609375 3.84570312 10.4296875 C4.58559127 14.61637161 5.30973077 18.80477147 6 23 C5.67 22.34 5.34 21.68 5 21 C4.34 21 3.68 21 3 21 C2.855625 19.865625 2.71125 18.73125 2.5625 17.5625 C2.38828522 14.19222799 2.38828522 14.19222799 1 13 C0.92820036 11.48071962 0.91607993 9.95832518 0.9375 8.4375 C0.94652344 7.61121094 0.95554688 6.78492188 0.96484375 5.93359375 C0.97644531 5.29550781 0.98804688 4.65742187 1 4 C-0.32 4.33 -1.64 4.66 -3 5 C-1.625 2.5 -1.625 2.5 0 0 Z " fill="#FEFAC6" transform="translate(144,31)"/>
<path d="M0 0 C1.02574883 0.00212242 1.02574883 0.00212242 2.07221985 0.00428772 C4.25261847 0.00987749 6.43291376 0.02242803 8.61328125 0.03515625 C10.09309747 0.04017258 11.57291531 0.04473525 13.05273438 0.04882812 C16.67711682 0.05984354 20.30143895 0.07710113 23.92578125 0.09765625 C23.92578125 0.42765625 23.92578125 0.75765625 23.92578125 1.09765625 C22.70677124 1.13524048 22.70677124 1.13524048 21.46313477 1.17358398 C17.80467373 1.28914743 14.14649597 1.41205209 10.48828125 1.53515625 C9.20888672 1.57447266 7.92949219 1.61378906 6.61132812 1.65429688 C4.78891602 1.71713867 4.78891602 1.71713867 2.9296875 1.78125 C1.80377197 1.81790771 0.67785645 1.85456543 -0.48217773 1.89233398 C-3.00275316 1.8098367 -3.00275316 1.8098367 -4.07421875 3.09765625 C-5.59349913 3.16945589 -7.11589357 3.18157632 -8.63671875 3.16015625 C-9.46300781 3.15113281 -10.28929687 3.14210938 -11.140625 3.1328125 C-11.77871094 3.12121094 -12.41679687 3.10960938 -13.07421875 3.09765625 C-8.52095846 0.06214939 -5.37822002 -0.02195192 0 0 Z " fill="#F9D729" transform="translate(157.07421875,101.90234375)"/>
<path d="M0 0 C3.465 1.485 3.465 1.485 7 3 C7 3.66 7 4.32 7 5 C1.47291389 5.94220126 -3.83758352 6.12116149 -9.4375 6.0625 C-10.26443359 6.05798828 -11.09136719 6.05347656 -11.94335938 6.04882812 C-13.96227146 6.03715811 -15.98114574 6.01922718 -18 6 C-18 5.67 -18 5.34 -18 5 C-16.55367187 4.92652344 -16.55367187 4.92652344 -15.078125 4.8515625 C-13.81484375 4.77679688 -12.5515625 4.70203125 -11.25 4.625 C-9.99703125 4.55539063 -8.7440625 4.48578125 -7.453125 4.4140625 C-4.39001879 4.04676696 -2.58025734 3.60288714 0 2 C0 1.34 0 0.68 0 0 Z " fill="#F6E264" transform="translate(58,152)"/>
<path d="M0 0 C0.66 0.33 1.32 0.66 2 1 C2 3.31 2 5.62 2 8 C3.98 7.67 5.96 7.34 8 7 C7.67 8.32 7.34 9.64 7 11 C2.38486888 9.68139111 -1.09897612 7.78644563 -5 5 C-4.360625 4.731875 -3.72125 4.46375 -3.0625 4.1875 C-0.66868314 3.11332248 -0.66868314 3.11332248 0 0 Z " fill="#F6DB31" transform="translate(37,105)"/>
<path d="M0 0 C0.66 0 1.32 0 2 0 C2.66 3.63 3.32 7.26 4 11 C4.66 11 5.32 11 6 11 C6 12.65 6 14.3 6 16 C6.66 16 7.32 16 8 16 C11 22.5 11 22.5 11 27 C9 26 9 26 8 23.0625 C7.67 22.051875 7.34 21.04125 7 20 C6.34 19.34 5.68 18.68 5 18 C2.43277167 12.15834459 0.56519662 6.35846199 0 0 Z " fill="#FDF9C6" transform="translate(95,80)"/>
<path d="M0 0 C1.35368041 -0.05525226 2.70806235 -0.09334369 4.0625 -0.125 C4.81660156 -0.14820313 5.57070313 -0.17140625 6.34765625 -0.1953125 C9 0 9 0 12.21875 0.96875 C16.67818536 2.18495964 20.83964978 2.44716212 25.4375 2.625 C26.67790039 2.68300781 26.67790039 2.68300781 27.94335938 2.7421875 C29.96191073 2.83553092 31.98092331 2.91880961 34 3 C34 3.33 34 3.66 34 4 C22.20059132 4.34293222 11.48433389 3.88395829 0 1 C0 0.67 0 0.34 0 0 Z " fill="#F2D838" transform="translate(20,153)"/>
<path d="M0 0 C2.5625 2.125 2.5625 2.125 5 5 C5 8.1875 5 8.1875 4 11 C3.01 11.66 2.02 12.32 1 13 C-0.00496852 9.98509443 -0.10335303 7.95818308 -0.0625 4.8125 C-0.05347656 3.91144531 -0.04445312 3.01039062 -0.03515625 2.08203125 C-0.02355469 1.39496094 -0.01195312 0.70789062 0 0 Z " fill="#F5DA38" transform="translate(172,36)"/>
<path d="M0 0 C0.66 0 1.32 0 2 0 C2.26554688 1.07121094 2.53109375 2.14242187 2.8046875 3.24609375 C3.16103168 4.64333805 3.51782582 6.04046764 3.875 7.4375 C4.13603516 8.49807617 4.13603516 8.49807617 4.40234375 9.58007812 C4.87351608 11.40368957 5.43123057 13.20443229 6 15 C6.66 15.33 7.32 15.66 8 16 C8.59355614 18.64860427 8.74209269 21.29197322 9 24 C6 20.375 6 20.375 6 17 C5.01 16.67 4.02 16.34 3 16 C2.01 10.72 1.02 5.44 0 0 Z " fill="#F3DE55" transform="translate(149,48)"/>
<path d="M0 0 C0.66 0 1.32 0 2 0 C1.54762239 1.91808109 1.08785537 3.83442033 0.625 5.75 C0.36976563 6.81734375 0.11453125 7.8846875 -0.1484375 8.984375 C-0.87533541 11.55852722 -1.7026224 13.67600186 -3 16 C-3.66 16 -4.32 16 -5 16 C-5.33 17.32 -5.66 18.64 -6 20 C-6.33 20 -6.66 20 -7 20 C-7.3636198 15.75776898 -6.5393228 13.41831915 -4 10 C-3.34 10 -2.68 10 -2 10 C-1.855625 9.278125 -1.71125 8.55625 -1.5625 7.8125 C-1.04166667 5.20833333 -0.52083333 2.60416667 0 0 Z " fill="#F4DA3C" transform="translate(189,128)"/>
<path d="M0 0 C-2.41075779 2.41075779 -4.38998827 2.5644754 -7.6328125 3.2890625 C-11.30571053 4.39214409 -14.5477137 6.23287672 -17.8984375 8.07421875 C-18.59195313 8.37972656 -19.28546875 8.68523437 -20 9 C-20.66 8.67 -21.32 8.34 -22 8 C-20.71186658 7.16121545 -19.41936744 6.32913217 -18.125 5.5 C-17.40570313 5.0359375 -16.68640625 4.571875 -15.9453125 4.09375 C-14 3 -14 3 -12 3 C-12 2.34 -12 1.68 -12 1 C-7.93631321 0.22596442 -4.13574827 -0.0984702 0 0 Z " fill="#FEF8BB" transform="translate(144,104)"/>
<path d="M0 0 C0.66 0 1.32 0 2 0 C1.1595613 4.48528865 0.05582308 8.89057943 -1.0625 13.3125 C-1.24876953 14.05306641 -1.43503906 14.79363281 -1.62695312 15.55664062 C-2.08356105 17.37136441 -2.54163306 19.18571971 -3 21 C-3.33 21 -3.66 21 -4 21 C-4 18.03 -4 15.06 -4 12 C-3.34 12 -2.68 12 -2 12 C-2.03480469 10.95199219 -2.03480469 10.95199219 -2.0703125 9.8828125 C-2.08835937 8.97273438 -2.10640625 8.06265625 -2.125 7.125 C-2.14820313 6.22007813 -2.17140625 5.31515625 -2.1953125 4.3828125 C-2 2 -2 2 0 0 Z " fill="#FEFCD5" transform="translate(7,64)"/>
<path d="M0 0 C7.75 0.875 7.75 0.875 10 2 C10 2.66 10 3.32 10 4 C11.1446875 4.185625 11.1446875 4.185625 12.3125 4.375 C15 5 15 5 18 7 C18 7.66 18 8.32 18 9 C13.96479403 7.41037341 9.98188718 5.71767682 6 4 C6 3.34 6 2.68 6 2 C3.03 1.505 3.03 1.505 0 1 C0 0.67 0 0.34 0 0 Z " fill="#FEF5B3" transform="translate(134,9)"/>
<path d="M0 0 C0.68835937 0.2784375 1.37671875 0.556875 2.0859375 0.84375 C6.38137985 2.54810782 10.71256181 4.15757468 15.0390625 5.78125 C18 7 18 7 21 9 C16.02906176 8.58846263 11.55491614 8.20399168 7 6 C7 5.34 7 4.68 7 4 C5.824375 3.7834375 5.824375 3.7834375 4.625 3.5625 C2 3 2 3 0 2 C0 1.34 0 0.68 0 0 Z " fill="#FEF9C5" transform="translate(40,115)"/>
<path d="M0 0 C0.58265625 0.19335938 1.1653125 0.38671875 1.765625 0.5859375 C8.43902794 2.70547743 15.07708013 3.98892064 22 5 C22 5.33 22 5.66 22 6 C14.52906777 6.29883729 7.36955011 5.15925507 0 4 C0 2.68 0 1.36 0 0 Z " fill="#FEF4AE" transform="translate(18,152)"/>
<path d="M0 0 C0.66 0 1.32 0 2 0 C0.45121035 5.38556401 -0.93698271 9.93698271 -5 14 C-5.99 14.33 -6.98 14.66 -8 15 C-6.66023187 10.98069562 -4.66068985 7.97930242 -2.12109375 4.6484375 C-0.80867708 2.87939685 -0.80867708 2.87939685 0 0 Z " fill="#FDF7BE" transform="translate(184,144)"/>
<path d="M0 0 C0.33 0 0.66 0 1 0 C1 2.64 1 5.28 1 8 C0.34 8 -0.32 8 -1 8 C-0.95875 8.9075 -0.9175 9.815 -0.875 10.75 C-0.99531556 13.8782046 -1.3914708 15.38614006 -3 18 C-3.66 18 -4.32 18 -5 18 C-1.92482916 5.33029613 -1.92482916 5.33029613 0 0 Z " fill="#FDF7C4" transform="translate(192,124)"/>
<path d="M0 0 C3.9252025 3.70090521 6.94580156 7.54959656 10 12 C8.35 12 6.7 12 5 12 C5 10.68 5 9.36 5 8 C4.01 8 3.02 8 2 8 C2 6.68 2 5.36 2 4 C1.34 4 0.68 4 0 4 C0 2.68 0 1.36 0 0 Z " fill="#F4DB45" transform="translate(66,110)"/>
<path d="M0 0 C2.97 0.495 2.97 0.495 6 1 C5.67 1.99 5.34 2.98 5 4 C5 3.34 5 2.68 5 2 C4.01 2 3.02 2 2 2 C1.67 7.94 1.34 13.88 1 20 C0.67 20 0.34 20 0 20 C0 13.4 0 6.8 0 0 Z " fill="#F4DA40" transform="translate(57,70)"/>
<path d="M0 0 C0.99 0.33 1.98 0.66 3 1 C1.18690997 4.77727089 -0.9073259 8.37269822 -3 12 C-3.66 11.01 -4.32 10.02 -5 9 C-4.67 8.01 -4.34 7.02 -4 6 C-3.34 6.33 -2.68 6.66 -2 7 C-2.061875 5.824375 -2.061875 5.824375 -2.125 4.625 C-2 2 -2 2 0 0 Z " fill="#F6D82B" transform="translate(139,32)"/>
<path d="M0 0 C0.33 0 0.66 0 1 0 C1.33 4.29 1.66 8.58 2 13 C0.68 13 -0.64 13 -2 13 C-1.85769192 11.58297487 -1.71099254 10.1663904 -1.5625 8.75 C-1.48128906 7.96109375 -1.40007812 7.1721875 -1.31640625 6.359375 C-1.02365007 4.17635361 -0.57935581 2.1226818 0 0 Z " fill="#F1DD4A" transform="translate(68,178)"/>
<path d="M0 0 C-1.61594832 2.04119788 -3.2856382 4.04072937 -5 6 C-5.66 6 -6.32 6 -7 6 C-7.33 6.66 -7.66 7.32 -8 8 C-8.36075949 3.55063291 -8.36075949 3.55063291 -6.8125 1.1875 C-4.44017475 -0.36678206 -2.77958655 -0.22537188 0 0 Z " fill="#FEFBD4" transform="translate(35,27)"/>
<path d="M0 0 C0.99 0 1.98 0 3 0 C1.85248597 4.7539867 0.61737483 9.37892907 -1 14 C-1.33 14 -1.66 14 -2 14 C-1.85795259 12.41632253 -1.71119847 10.83306682 -1.5625 9.25 C-1.48128906 8.36828125 -1.40007812 7.4865625 -1.31640625 6.578125 C-1.03761535 4.30649548 -0.61209423 2.20148177 0 0 Z " fill="#FEF7C0" transform="translate(69,168)"/>
<path d="M0 0 C0.66 0 1.32 0 2 0 C1.67 1.98 1.34 3.96 1 6 C0.34 6 -0.32 6 -1 6 C-1.144375 6.5775 -1.28875 7.155 -1.4375 7.75 C-1.95833333 9.83333333 -2.47916667 11.91666667 -3 14 C-3.66 14 -4.32 14 -5 14 C-3.25 6.25 -3.25 6.25 -1 4 C-0.3574765 1.93125966 -0.3574765 1.93125966 0 0 Z " fill="#F4DA48" transform="translate(76,158)"/>
<path d="M0 0 C0.68359375 1.765625 0.68359375 1.765625 1 4 C-0.21484375 5.921875 -0.21484375 5.921875 -1.9375 7.75 C-2.50339844 8.36359375 -3.06929688 8.9771875 -3.65234375 9.609375 C-4.31943359 10.29773438 -4.31943359 10.29773438 -5 11 C-5.33 10.34 -5.66 9.68 -6 9 C-4.21293716 5.54912004 -2.74146784 2.74146784 0 0 Z " fill="#F5E15F" transform="translate(85,144)"/>
<path d="M0 0 C0.99 0.495 0.99 0.495 2 1 C2 2.32 2 3.64 2 5 C2.99 5.33 3.98 5.66 5 6 C5.33 7.65 5.66 9.3 6 11 C5.01 11 4.02 11 3 11 C2.49384702 9.73160474 1.99530901 8.46016898 1.5 7.1875 C1.2215625 6.47980469 0.943125 5.77210938 0.65625 5.04296875 C0 3 0 3 0 0 Z " fill="#F4DC3C" transform="translate(9,131)"/>
<path d="M0 0 C1.8125 0.1875 1.8125 0.1875 4 1 C5.625 3.3125 5.625 3.3125 7 6 C7.391875 6.763125 7.78375 7.52625 8.1875 8.3125 C8.455625 8.869375 8.72375 9.42625 9 10 C8.34 10 7.68 10 7 10 C7 9.34 7 8.68 7 8 C6.401875 7.979375 5.80375 7.95875 5.1875 7.9375 C3 7 3 7 1.25 3.4375 C0.8375 2.303125 0.425 1.16875 0 0 Z " fill="#FAEE9D" transform="translate(64,76)"/>
<path d="M0 0 C0.66 0 1.32 0 2 0 C2.66 2.31 3.32 4.62 4 7 C3.34 6.67 2.68 6.34 2 6 C2 5.34 2 4.68 2 4 C1.54625 4.495 1.0925 4.99 0.625 5.5 C-1 7 -1 7 -3 7 C-1.125 1.125 -1.125 1.125 0 0 Z " fill="#FEF3A7" transform="translate(99,45)"/>
<path d="M0 0 C7.625 1.75 7.625 1.75 11 4 C6.545 4.495 6.545 4.495 2 5 C1.34 3.35 0.68 1.7 0 0 Z " fill="#F8D739" transform="translate(120,5)"/>
<path d="M0 0 C1.65 1.65 3.3 3.3 5 5 C3.741875 5.04125 2.48375 5.0825 1.1875 5.125 C0.47980469 5.14820313 -0.22789063 5.17140625 -0.95703125 5.1953125 C-3 5 -3 5 -6 3 C-4.02 2.67 -2.04 2.34 0 2 C0 1.34 0 0.68 0 0 Z " fill="#F3DD58" transform="translate(76,123)"/>
<path d="M0 0 C3.875 1.75 3.875 1.75 5 4 C4.01 4 3.02 4 2 4 C2 5.98 2 7.96 2 10 C-0.4294516 6.3558226 -0.16179575 4.28758728 0 0 Z " fill="#FEF6B0" transform="translate(28,107)"/>
<path d="M0 0 C0.79921875 0.02707031 1.5984375 0.05414063 2.421875 0.08203125 C3.02515625 0.11683594 3.6284375 0.15164062 4.25 0.1875 C1.08759418 2.29577055 -0.25657469 2.52567465 -3.9375 2.8125 C-5.28908203 2.92464844 -5.28908203 2.92464844 -6.66796875 3.0390625 C-7.69857422 3.11253906 -7.69857422 3.11253906 -8.75 3.1875 C-5.74754796 0.56379764 -3.97853212 -0.17552348 0 0 Z " fill="#FEF9CD" transform="translate(162.75,98.8125)"/>
<path d="M0 0 C3.48331435 3.01887244 4.79157144 5.56909529 6 10 C3.525 9.01 3.525 9.01 1 8 C1.33 6.68 1.66 5.36 2 4 C1.34 4 0.68 4 0 4 C0 2.68 0 1.36 0 0 Z " fill="#F1DB4A" transform="translate(99,96)"/>
<path d="M0 0 C1.3049427 4.05982172 0.73256315 6.44868981 -1.0625 10.25 C-1.371875 10.8275 -1.68125 11.405 -2 12 C-2.33 12 -2.66 12 -3 12 C-2.88541307 10.56163249 -2.75790884 9.12429034 -2.625 7.6875 C-2.55539062 6.88699219 -2.48578125 6.08648437 -2.4140625 5.26171875 C-2 3 -2 3 0 0 Z " fill="#F6D82F" transform="translate(14,54)"/>
<path d="M0 0 C3.33333333 1.66666667 6.66666667 3.33333333 10 5 C9.67 6.32 9.34 7.64 9 9 C7.49704815 7.69088122 5.99770689 6.37761608 4.5 5.0625 C3.6646875 4.33160156 2.829375 3.60070312 1.96875 2.84765625 C1.3190625 2.23792969 0.669375 1.62820312 0 1 C0 0.67 0 0.34 0 0 Z " fill="#FEF7BC" transform="translate(159,23)"/>
<path d="M0 0 C0.66 0.33 1.32 0.66 2 1 C-1.625 5.875 -1.625 5.875 -5 7 C-5.66 6.34 -6.32 5.68 -7 5 C-4.69 3.35 -2.38 1.7 0 0 Z " fill="#FDF9C4" transform="translate(157,176)"/>
<path d="M0 0 C0.8125 1.6875 0.8125 1.6875 1 4 C-1.3125 6.75 -1.3125 6.75 -4 9 C-4.66 9 -5.32 9 -6 9 C-4.68775452 5.06326356 -3.08089673 2.77280706 0 0 Z " fill="#F3DF4C" transform="translate(26,36)"/>
<path d="M0 0 C0.99 0.33 1.98 0.66 3 1 C2.02471263 2.33617352 1.04466681 3.6688751 0.0625 5 C-0.48277344 5.7425 -1.02804688 6.485 -1.58984375 7.25 C-2.28787109 8.11625 -2.28787109 8.11625 -3 9 C-3.33 9 -3.66 9 -4 9 C-4.25 6.75 -4.25 6.75 -4 4 C-2 1.6875 -2 1.6875 0 0 Z " fill="#F5D837" transform="translate(175,155)"/>
<path d="M0 0 C1.46911544 3.81970016 0.52561108 6.30641529 -1 10 C-1.66 10.66 -2.32 11.32 -3 12 C-2.14285714 3.42857143 -2.14285714 3.42857143 0 0 Z " fill="#FEF7B4" transform="translate(171,54)"/>
<path d="M0 0 C-0.33 0.99 -0.66 1.98 -1 3 C-3.97 3 -6.94 3 -10 3 C-6.26223701 0.50815801 -4.5227786 0 0 0 Z " fill="#F6DE4C" transform="translate(154,102)"/>
<path d="M0 0 C0.33 0.66 0.66 1.32 1 2 C0 5 0 5 -2 6.0625 C-2.66 6.371875 -3.32 6.68125 -4 7 C-4.33 7.66 -4.66 8.32 -5 9 C-5.66 8.67 -6.32 8.34 -7 8 C-6.34 7.01 -5.68 6.02 -5 5 C-4.34 5 -3.68 5 -3 5 C-2.690625 4.360625 -2.38125 3.72125 -2.0625 3.0625 C-1 1 -1 1 0 0 Z " fill="#FEF5B8" transform="translate(175,159)"/>
<path d="M0 0 C0.33 0 0.66 0 1 0 C1.33 2.64 1.66 5.28 2 8 C-1.16115776 6.63016497 -1.9927092 6.0109362 -4 3 C-2.68 3.33 -1.36 3.66 0 4 C0 2.68 0 1.36 0 0 Z " fill="#F2DE66" transform="translate(132,83)"/>
<path d="M0 0 C2 0 2 0 4.0625 1.6875 C6.17875625 4.21335423 6.64119018 5.77071161 7 9 C4.03595495 6.19195732 1.55500981 3.81684226 0 0 Z " fill="#F1DA42" transform="translate(117,73)"/>
<path d="M0 0 C0.8125 1.6875 0.8125 1.6875 1 4 C-1.4375 6.75 -1.4375 6.75 -4 9 C-2.94124926 5.59687262 -1.99097846 2.98646769 0 0 Z " fill="#F4DC4A" transform="translate(19,45)"/>
<path d="M0 0 C0.86625 0.3403125 0.86625 0.3403125 1.75 0.6875 C0 2.25 0 2.25 -2.25 3.6875 C-4.5 3.375 -4.5 3.375 -6.25 2.6875 C-2.80384615 -0.38942308 -2.80384615 -0.38942308 0 0 Z " fill="#F4DC49" transform="translate(51.25,16.3125)"/>
</svg>
